<?xml version="1.0" encoding="utf-8"?>
<!-- Generator: Adobe Illustrator 26.1.0, SVG Export Plug-In . SVG Version: 6.00 Build 0)  -->
<svg version="1.1" id="Laag_1" xmlns="http://www.w3.org/2000/svg" xmlns:xlink="http://www.w3.org/1999/xlink" x="0px" y="0px"
	 viewBox="0 0 566.9 87.5" style="enable-background:new 0 0 566.9 87.5;" xml:space="preserve">
<style type="text/css">
	.st0{fill:#470A68;}
	.st1{fill:#4E5B31;}
</style>
<g>
	<path class="st0" d="M474.4,1.8v46.1l-31-45.1l-0.6-0.9h-24h-0.7l0,0v7.6v21C412.3,12.7,395.8,0,376.4,0
		c-17.4,0-32.5,10.2-39.5,24.9C334.8,7,319.4,1.4,308.5,1.4h-18.3h-11.1H268v11.2C259.6,4.8,248,0,235.2,0
		c-25.8,0-46.8,19.6-46.8,43.7c0,0.7,0,1.4,0.1,2.1l-19-44.2H169h-21.4H147l-26.6,61.9H94.8L94.7,1.8H70.1v15.9
		C64.5,7.5,52.5,1.4,38.5,1.4h-14H11.1H0v84.1h24.6V60.4h14c14.2,0,26-6,31.5-16.1v41.1H111l0,0h26.2l5.5-14.4h31.1l5.5,14.4h26.2
		l-5.6-13.1c8.6,9.2,21.2,15.1,35.3,15.1c4.5,0,8.8-0.6,12.9-1.7c8.5-2.2,15.1-6.5,19.9-10.7v10.4h22.2V61.3h14.4L318,85.5h25.3
		L324,54.4c0,0,4.9-1.6,8.7-7.6c1.5,22.8,20.5,40.7,43.6,40.7c19.5,0,36-12.7,41.6-30.4v28.4h25.4V43.7l30.9,41.8l0,0h25.4v-0.6V1.8
		H474.4z M38,42.8H24.6V22.2H38C53.1,22.2,53.3,42.8,38,42.8z M149.4,53.3l8.8-23.3l8.8,23.3H149.4z M268,35.6h-33.7v18.3h13.8v7.6
		c-3.5,2.5-7.9,4-12.5,4c-12,0-21.8-9.7-21.8-21.7s9.7-21.7,21.8-21.7c7.8,0,13,3.2,19.2,9.1L268,14.3V35.6z M303,42.8h-12.8v-21
		H303C318.1,21.8,318.2,42.8,303,42.8z M376.7,64.2c-10.6,0-19.2-9.1-19.2-20.4s8.6-20.4,19.2-20.4s19.2,9.1,19.2,20.4
		C395.8,55.1,387.3,64.2,376.7,64.2z"/>
</g>
<path class="st1" d="M536.6,35.6L536.6,35.6L536.6,35.6c-10.8,0-19.6,8.8-19.6,19.6l0,0l0,0v30.3h30.3c10.8,0,19.6-8.8,19.6-19.6
	V35.6H536.6z"/>
</svg>
